<svg xmlns="http://www.w3.org/2000/svg" viewBox="0 0 200 200" role="img" aria-labelledby="title desc">
  <title id="title">Bao Nguyen headshot</title>
  <desc id="desc">Professional profile illustration for Bao Nguyen.</desc>
  <defs>
    <linearGradient id="bg" x1="0" x2="1" y1="0" y2="1">
      <stop offset="0%" stop-color="#dfe7d6"/>
      <stop offset="100%" stop-color="#b7c7a8"/>
    </linearGradient>
  </defs>

  <rect width="200" height="200" rx="100" fill="url(#bg)"/>
  <circle cx="100" cy="78" r="38" fill="#f3d7be"/>
  <path d="M66 78c0-20 15-36 34-36s34 16 34 36c0 8-2 16-6 22-8-8-18-12-28-12s-20 4-28 12c-4-6-6-14-6-22Z" fill="#3a4a3d"/>
  <path d="M56 168c8-24 29-36 44-36s36 12 44 36v16H56v-16Z" fill="#536b50"/>
  <path d="M82 117c4 6 13 10 18 10s14-4 18-10" fill="none" stroke="#7a5741" stroke-width="3" stroke-linecap="round"/>
  <circle cx="87" cy="80" r="3" fill="#2f2f2f"/>
  <circle cx="113" cy="80" r="3" fill="#2f2f2f"/>
  <path d="M90 95c5 5 15 5 20 0" fill="none" stroke="#a7664b" stroke-width="3" stroke-linecap="round"/>
</svg>
